<?xml version="1.0" encoding="UTF-8"?>
<!-- Generator: Adobe Illustrator 16.0.0, SVG Export Plug-In . SVG Version: 6.00 Build 0)  -->
<!DOCTYPE svg PUBLIC "-//W3C//DTD SVG 1.1//EN" "http://www.w3.org/Graphics/SVG/1.1/DTD/svg11.dtd">
<svg version="1.1" id="Слой_1" xmlns="http://www.w3.org/2000/svg" xmlns:xlink="http://www.w3.org/1999/xlink" x="0px" y="0px" width="512px" height="512px" viewBox="0 74 512 512" enable-background="new 0 0 512 512" xml:space="preserve">
<g id="Hosting">
	<g>
		<path fill="#43454F" d="M512,295.309V99.307c0-14.232-11.535-25.76-25.766-25.76H201.777c-14.219,0-25.75,11.527-25.75,25.76    v196.002H512z"/>
		<g>
			<path fill="#CCD1D9" d="M486.234,149.105c0,3.5-3.289,6.301-7.348,6.301H209.129c-4.059,0-7.352-2.832-7.352-6.332v-43.408     c0-3.5,3.293-6.34,7.352-6.34h269.758c4.059,0,7.348,2.84,7.348,6.34V149.105z"/>
			<rect x="201.777" y="115.813" fill="#E5E8EC" width="284.457" height="153.734"/>
			<path fill="#E6E9ED" d="M214.008,105.879c-1.438,0-2.609,1.02-2.609,2.262c0,1.238,1.172,2.252,2.609,2.252     c1.441,0,2.617-1.014,2.617-2.252C216.625,106.898,215.449,105.879,214.008,105.879z"/>
			<path fill="#E6E9ED" d="M226.016,105.879c-1.441,0-2.613,1.02-2.613,2.262c0,1.238,1.172,2.252,2.613,2.252     s2.613-1.014,2.613-2.252C228.629,106.898,227.457,105.879,226.016,105.879z"/>
			<path fill="#E6E9ED" d="M238.023,105.879c-1.441,0-2.613,1.02-2.613,2.262c0,1.238,1.172,2.252,2.613,2.252     s2.613-1.014,2.613-2.252C240.637,106.898,239.465,105.879,238.023,105.879z"/>
		</g>
		<polygon fill="#CCD1D9" points="394.195,358.594 293.828,358.594 300.242,331.133 387.785,331.133   "/>
		<path fill="#E6E9ED" d="M176.027,295.309v10.063c0,14.227,11.531,25.762,25.75,25.762h284.457    c14.23,0,25.766-11.539,25.766-25.762v-10.063H176.027z"/>
		<path fill="#E6E9ED" d="M280.852,377.309c-5.168,0-9.359-4.195-9.359-9.355l0,0c0-5.168,4.191-9.359,9.359-9.359h126.32    c5.168,0,9.359,4.191,9.359,9.359l0,0c0,5.16-4.191,9.355-9.359,9.355H280.852z"/>
		<rect x="359.082" y="175.98" fill="#EC5564" width="56.703" height="6.367"/>
		<rect x="201.777" y="115.813" fill="#F4F6F9" width="284.457" height="153.734"/>
		<g>
			<polygon fill="#4A89DC" points="215.699,129.766 215.535,189.473 472.285,189.473 472.285,129.766    "/>
			<rect x="257.438" y="152.398" fill="#FFFFFF" width="172.988" height="1.934"/>
			<rect x="300.656" y="158.313" fill="#FFFFFF" width="86.547" height="1.941"/>
			<rect x="322.281" y="164.234" fill="#FFFFFF" width="43.297" height="1.932"/>
		</g>
		<g>
			<rect x="396.004" y="203.42" fill="#FFFFFF" width="76.281" height="52.357"/>
			<path fill="#5D9CEC" d="M445.031,222.373c0,6.014-4.879,10.881-10.887,10.881c-6.012,0-10.883-4.867-10.883-10.881     s4.871-10.887,10.883-10.887C440.152,211.486,445.031,216.359,445.031,222.373z"/>
			<rect x="407.965" y="240.246" fill="#656D78" width="52.363" height="1.941"/>
			<rect x="424.98" y="246.168" fill="#656D78" width="18.328" height="1.938"/>
		</g>
		<g>
			<rect x="305.77" y="203.42" fill="#FFFFFF" width="76.285" height="52.357"/>
			<path fill="#5D9CEC" d="M354.797,222.373c0,6.014-4.875,10.881-10.887,10.881s-10.887-4.867-10.887-10.881     s4.875-10.887,10.887-10.887S354.797,216.359,354.797,222.373z"/>
			<rect x="317.73" y="240.246" fill="#656D78" width="52.359" height="1.941"/>
			<rect x="334.75" y="246.168" fill="#656D78" width="18.324" height="1.938"/>
		</g>
		<g>
			<rect x="215.535" y="203.42" fill="#FFFFFF" width="76.281" height="52.357"/>
			<path fill="#5D9CEC" d="M264.563,222.373c0,6.014-4.875,10.881-10.887,10.881s-10.887-4.867-10.887-10.881     s4.875-10.887,10.887-10.887S264.563,216.359,264.563,222.373z"/>
			<rect x="227.496" y="240.246" fill="#656D78" width="52.359" height="1.941"/>
			<rect x="244.516" y="246.168" fill="#656D78" width="18.324" height="1.938"/>
		</g>
	</g>
	<g>
		<rect y="199.986" fill="#303842" width="328.625" height="238.467"/>
		<g>
			<rect y="364.004" fill="#434A54" width="328.625" height="74.449"/>
			<g>
				<polygon fill="#303842" points="55.578,416.094 24.523,416.094 43.848,394.625 74.898,394.625     "/>
				<polygon fill="#303842" points="105.945,416.094 74.898,416.094 94.219,394.625 125.266,394.625     "/>
				<polygon fill="#303842" points="156.32,416.094 125.27,416.094 144.59,394.625 175.641,394.625     "/>
			</g>
			<path fill="#4A89DC" d="M294.172,405.359c0-7.82-6.34-14.16-14.156-14.16s-14.156,6.34-14.156,14.16     c0,7.813,6.34,14.152,14.156,14.152S294.172,413.172,294.172,405.359z"/>
		</g>
		<g>
			<rect y="281.992" fill="#434A54" width="328.625" height="74.453"/>
			<g>
				<polygon fill="#303842" points="55.578,334.082 24.523,334.082 43.848,312.613 74.898,312.613     "/>
				<polygon fill="#303842" points="105.945,334.082 74.898,334.082 94.219,312.613 125.266,312.613     "/>
				<polygon fill="#303842" points="156.32,334.082 125.27,334.082 144.59,312.613 175.641,312.613     "/>
			</g>
			<circle fill="#4A89DC" cx="280.016" cy="323.348" r="14.156"/>
		</g>
		<polygon fill="#303842" points="284.508,147.873 44.121,147.873 0,199.986 328.625,199.986   "/>
		<g>
			<rect y="199.986" fill="#434A54" width="328.625" height="74.447"/>
			<g>
				<polygon fill="#303842" points="55.578,252.074 24.523,252.074 43.848,230.605 74.898,230.605     "/>
				<polygon fill="#303842" points="105.945,252.074 74.898,252.074 94.219,230.605 125.266,230.605     "/>
				<polygon fill="#303842" points="156.32,252.074 125.27,252.074 144.59,230.605 175.641,230.605     "/>
			</g>
			<path fill="#4A89DC" d="M294.172,241.34c0-7.82-6.34-14.16-14.156-14.16s-14.156,6.34-14.156,14.16     c0,7.813,6.34,14.152,14.156,14.152S294.172,249.152,294.172,241.34z"/>
		</g>
	</g>
</g>
</svg>