<?xml version="1.0" encoding="UTF-8" ?>
<!DOCTYPE svg PUBLIC "-//W3C//DTD SVG 1.1//EN" "http://www.w3.org/Graphics/SVG/1.1/DTD/svg11.dtd">
<svg width="486pt" height="137pt" viewBox="0 0 486 137" version="1.1" xmlns="http://www.w3.org/2000/svg">
<path fill="#8e44ad" d=" M 485.85 0.00 L 486.00 0.00 L 486.00 15.09 C 478.10 15.35 470.16 14.69 462.29 15.38 C 459.21 19.07 456.98 23.37 454.19 27.27 C 448.26 36.61 441.49 45.45 436.24 55.20 C 435.68 42.90 435.97 30.56 436.05 18.25 C 452.68 12.27 469.39 6.44 485.85 0.00 Z" />
<path fill="#030303" d=" M 375.88 14.73 C 377.19 14.27 378.56 14.05 379.94 13.84 C 380.20 18.13 380.10 22.43 380.07 26.73 C 363.53 32.30 347.07 38.08 330.59 43.81 C 334.25 50.40 339.02 56.59 340.63 64.11 C 342.34 73.20 340.01 83.55 332.91 89.85 C 328.88 93.55 323.26 94.85 317.93 95.02 C 315.16 95.04 312.25 95.34 309.72 93.98 C 309.95 107.54 304.70 121.28 294.59 130.47 C 291.22 132.84 286.80 131.93 282.97 131.75 C 277.06 130.92 270.77 131.21 265.27 128.58 C 263.09 126.60 266.44 124.54 268.15 123.88 C 279.18 119.36 290.25 114.21 299.21 106.18 C 302.20 103.33 305.52 98.96 303.33 94.69 C 299.71 88.13 293.30 83.83 287.59 79.24 C 291.26 74.16 294.26 68.58 298.35 63.82 C 302.82 68.22 306.77 73.91 312.97 75.90 C 319.52 75.83 327.03 77.08 332.70 73.04 C 329.71 65.36 324.44 58.87 320.02 51.99 C 318.82 49.77 316.10 47.76 317.04 44.97 C 318.12 40.99 319.36 37.03 321.26 33.35 C 339.50 27.24 357.68 20.96 375.88 14.73 Z" />
<path fill="#8e44ad" d=" M 456.27 57.13 C 465.99 43.44 476.02 29.92 486.00 16.41 L 486.00 83.58 C 483.53 85.18 480.94 86.59 478.34 87.97 C 471.04 77.66 463.23 67.66 456.27 57.13 Z" />
<path fill="#8e44ad" d=" M 406.03 29.19 C 409.18 28.12 412.31 26.98 415.45 25.84 C 415.58 51.70 415.43 77.56 415.52 103.41 C 422.33 103.25 429.15 103.42 435.96 103.30 C 436.09 89.48 435.62 75.64 436.24 61.83 C 438.28 66.49 441.51 70.48 444.23 74.75 C 449.68 82.78 454.97 90.93 460.60 98.85 C 442.40 109.77 424.34 120.94 406.01 131.64 C 406.00 97.49 405.97 63.34 406.03 29.19 Z" />
<path fill="#8e44ad" d=" M 85.15 45.84 C 90.91 49.74 94.74 56.21 96.04 62.98 C 97.00 72.87 95.81 84.09 88.51 91.52 C 82.19 98.19 72.93 100.73 64.08 101.81 C 54.11 102.80 44.04 103.51 34.03 102.60 C 25.00 102.09 15.15 101.01 8.04 94.84 C 2.81 90.49 1.06 83.46 0.45 76.98 C 1.23 71.35 1.57 65.41 4.18 60.25 C 4.79 58.68 6.42 58.27 7.88 57.97 C 8.58 64.04 6.37 71.05 10.82 76.17 C 16.43 82.11 25.24 82.73 32.88 83.72 C 46.94 84.32 61.13 84.30 75.05 81.96 C 78.68 81.27 82.41 80.55 85.61 78.64 C 86.97 77.83 88.42 76.13 87.49 74.49 C 85.02 69.72 80.26 66.82 76.29 63.43 C 79.30 57.59 82.00 51.60 85.15 45.84 Z" />
<path fill="#8e44ad" d=" M 104.21 60.30 C 106.39 55.59 109.40 50.27 114.93 49.13 C 120.71 48.47 126.15 52.21 129.01 57.06 C 135.61 67.93 136.07 81.18 134.74 93.48 C 132.97 106.21 128.41 119.06 119.43 128.51 C 117.68 130.19 115.73 132.50 113.01 131.93 C 105.67 131.25 98.30 130.56 91.08 129.02 C 89.27 128.84 86.64 126.23 88.69 124.68 C 91.70 122.70 95.36 122.08 98.59 120.54 C 104.98 117.59 111.11 114.01 116.68 109.70 C 121.82 105.58 126.64 100.52 128.50 94.03 C 120.48 93.95 112.11 94.45 104.51 91.44 C 100.35 89.93 97.47 85.53 98.15 81.09 C 99.11 73.91 101.39 66.95 104.21 60.30 Z" />
<path fill="#030303" d=" M 279.43 51.19 C 279.70 51.21 280.24 51.23 280.50 51.25 C 285.18 61.44 286.81 73.63 282.42 84.21 C 280.51 88.76 277.21 93.33 272.13 94.49 C 266.60 96.36 260.56 92.78 258.55 87.50 C 256.45 90.83 253.45 93.82 249.46 94.65 C 243.97 96.05 238.61 92.44 235.80 87.91 C 233.64 91.82 229.64 95.04 225.01 95.00 C 215.00 95.03 204.99 94.98 194.99 95.00 C 191.97 95.09 188.57 95.19 186.15 97.25 C 185.09 99.72 188.42 100.22 190.10 100.66 C 197.74 101.46 205.46 100.68 213.12 101.09 C 216.05 101.38 219.36 102.37 220.68 105.28 C 222.45 111.37 220.33 118.37 215.45 122.44 C 208.94 128.05 200.12 129.60 191.89 130.81 C 177.71 132.07 162.71 133.60 149.25 127.85 C 142.63 125.17 137.18 119.31 136.20 112.07 C 135.28 104.22 137.28 96.29 140.05 88.99 C 141.44 86.00 142.90 81.86 146.84 81.82 C 147.86 85.73 145.39 89.22 144.97 93.01 C 144.10 97.13 144.40 101.69 146.71 105.31 C 149.42 109.77 154.23 112.38 158.95 114.22 C 166.27 117.00 174.15 118.24 181.97 118.00 C 191.10 118.14 200.37 117.77 209.20 115.25 C 211.00 114.59 213.46 114.12 214.10 112.02 C 212.14 110.35 209.35 111.21 207.01 110.99 C 199.41 110.77 191.64 111.77 184.19 109.84 C 180.63 109.03 177.49 105.78 177.95 101.95 C 178.44 95.91 182.70 91.05 187.03 87.19 C 194.04 80.67 203.47 77.32 212.90 76.51 C 218.21 75.61 223.60 76.34 228.92 75.79 C 233.66 74.39 233.57 68.77 235.12 64.97 C 235.83 64.96 237.25 64.93 237.96 64.92 C 239.43 68.58 238.88 74.06 243.40 75.58 C 246.73 76.43 251.20 76.58 253.30 73.29 C 254.70 70.68 254.99 67.64 256.06 64.89 C 256.79 64.90 258.25 64.91 258.98 64.91 C 260.06 67.77 260.07 71.22 262.29 73.53 C 265.55 76.25 270.07 76.23 274.08 75.91 C 276.76 75.67 278.54 72.64 277.69 70.14 C 276.67 66.74 274.38 63.92 272.05 61.33 C 274.40 57.87 276.81 54.45 279.43 51.19 Z" />
<path fill="#ffffff" d=" M 109.30 74.68 C 104.93 72.93 107.83 66.02 111.89 66.03 C 118.08 65.15 123.17 70.37 125.08 75.80 C 119.84 75.94 114.28 76.73 109.30 74.68 Z" />
<path fill="#8e44ad" d=" M 40.55 127.24 C 43.37 124.22 46.16 121.18 49.15 118.33 C 52.41 121.20 55.65 124.14 58.29 127.60 C 55.38 130.30 52.97 133.51 49.92 136.04 C 46.05 134.36 43.49 130.26 40.55 127.24 Z" />
</svg>
